<mxfile host="app.diagrams.net" modified="2023-03-14T18:01:29.249Z" agent="5.0 (X11; Ubuntu)" etag="mZ98iCqRgpXQU0YB6gMK" version="21.0.6" type="github">
  <diagram id="R2lEEEUBdFMjLlhIrx00" name="Page-1">
    <mxGraphModel dx="3149" dy="1687" grid="1" gridSize="10" guides="1" tooltips="1" connect="1" arrows="1" fold="1" page="1" pageScale="1" pageWidth="1100" pageHeight="850" math="0" shadow="0" extFonts="Permanent Marker^https://fonts.googleapis.com/css?family=Permanent+Marker">
      <root>
        <mxCell id="0" />
        <mxCell id="1" parent="0" />
        <mxCell id="8MgGUc8JVX6JSV-waokn-9" style="edgeStyle=orthogonalEdgeStyle;rounded=0;orthogonalLoop=1;jettySize=auto;html=1;exitX=0.75;exitY=1;exitDx=0;exitDy=0;entryX=0;entryY=0.5;entryDx=0;entryDy=0;" parent="1" source="EXsFiEfPDIInfz-rMbzo-3" target="EXsFiEfPDIInfz-rMbzo-27" edge="1">
          <mxGeometry relative="1" as="geometry" />
        </mxCell>
        <mxCell id="8MgGUc8JVX6JSV-waokn-10" style="edgeStyle=orthogonalEdgeStyle;rounded=0;orthogonalLoop=1;jettySize=auto;html=1;exitX=0.5;exitY=1;exitDx=0;exitDy=0;entryX=0.5;entryY=0;entryDx=0;entryDy=0;" parent="1" source="EXsFiEfPDIInfz-rMbzo-3" target="hYuhblJGg8dOX8Agt1h2-1" edge="1">
          <mxGeometry relative="1" as="geometry" />
        </mxCell>
        <mxCell id="8MgGUc8JVX6JSV-waokn-12" style="edgeStyle=orthogonalEdgeStyle;rounded=0;orthogonalLoop=1;jettySize=auto;html=1;exitX=0.25;exitY=1;exitDx=0;exitDy=0;entryX=0.5;entryY=0;entryDx=0;entryDy=0;" parent="1" source="EXsFiEfPDIInfz-rMbzo-3" target="EXsFiEfPDIInfz-rMbzo-32" edge="1">
          <mxGeometry relative="1" as="geometry" />
        </mxCell>
        <mxCell id="8MgGUc8JVX6JSV-waokn-13" style="edgeStyle=orthogonalEdgeStyle;rounded=0;orthogonalLoop=1;jettySize=auto;html=1;exitX=0;exitY=1;exitDx=0;exitDy=0;" parent="1" source="EXsFiEfPDIInfz-rMbzo-3" target="EXsFiEfPDIInfz-rMbzo-38" edge="1">
          <mxGeometry relative="1" as="geometry" />
        </mxCell>
        <mxCell id="8MgGUc8JVX6JSV-waokn-14" style="edgeStyle=orthogonalEdgeStyle;rounded=0;orthogonalLoop=1;jettySize=auto;html=1;exitX=0;exitY=0.75;exitDx=0;exitDy=0;entryX=1;entryY=0.5;entryDx=0;entryDy=0;" parent="1" source="EXsFiEfPDIInfz-rMbzo-3" target="EXsFiEfPDIInfz-rMbzo-63" edge="1">
          <mxGeometry relative="1" as="geometry" />
        </mxCell>
        <mxCell id="8MgGUc8JVX6JSV-waokn-15" style="edgeStyle=orthogonalEdgeStyle;rounded=0;orthogonalLoop=1;jettySize=auto;html=1;entryX=1;entryY=0.5;entryDx=0;entryDy=0;" parent="1" source="EXsFiEfPDIInfz-rMbzo-3" target="EXsFiEfPDIInfz-rMbzo-44" edge="1">
          <mxGeometry relative="1" as="geometry" />
        </mxCell>
        <mxCell id="8MgGUc8JVX6JSV-waokn-16" style="edgeStyle=orthogonalEdgeStyle;rounded=0;orthogonalLoop=1;jettySize=auto;html=1;exitX=0;exitY=0.25;exitDx=0;exitDy=0;entryX=1;entryY=0.5;entryDx=0;entryDy=0;" parent="1" source="EXsFiEfPDIInfz-rMbzo-3" target="EXsFiEfPDIInfz-rMbzo-28" edge="1">
          <mxGeometry relative="1" as="geometry" />
        </mxCell>
        <mxCell id="8MgGUc8JVX6JSV-waokn-17" style="edgeStyle=orthogonalEdgeStyle;rounded=0;orthogonalLoop=1;jettySize=auto;html=1;exitX=0.25;exitY=0;exitDx=0;exitDy=0;entryX=0.5;entryY=1;entryDx=0;entryDy=0;" parent="1" source="EXsFiEfPDIInfz-rMbzo-3" target="EXsFiEfPDIInfz-rMbzo-45" edge="1">
          <mxGeometry relative="1" as="geometry" />
        </mxCell>
        <mxCell id="8MgGUc8JVX6JSV-waokn-38" style="edgeStyle=orthogonalEdgeStyle;rounded=0;orthogonalLoop=1;jettySize=auto;html=1;entryX=0;entryY=0.5;entryDx=0;entryDy=0;" parent="1" source="EXsFiEfPDIInfz-rMbzo-3" target="8MgGUc8JVX6JSV-waokn-36" edge="1">
          <mxGeometry relative="1" as="geometry" />
        </mxCell>
        <mxCell id="t3Xq9TjTE5SwbGCGPuHj-31" style="edgeStyle=orthogonalEdgeStyle;rounded=0;orthogonalLoop=1;jettySize=auto;html=1;exitX=0.75;exitY=0;exitDx=0;exitDy=0;" edge="1" parent="1" source="EXsFiEfPDIInfz-rMbzo-3">
          <mxGeometry relative="1" as="geometry">
            <mxPoint x="-170" y="130" as="targetPoint" />
          </mxGeometry>
        </mxCell>
        <mxCell id="EXsFiEfPDIInfz-rMbzo-3" value="CUSTOMER" style="whiteSpace=wrap;html=1;align=center;" parent="1" vertex="1">
          <mxGeometry x="-330" y="270" width="225" height="90" as="geometry" />
        </mxCell>
        <mxCell id="8MgGUc8JVX6JSV-waokn-20" style="edgeStyle=orthogonalEdgeStyle;rounded=0;orthogonalLoop=1;jettySize=auto;html=1;exitX=0;exitY=0.5;exitDx=0;exitDy=0;entryX=1;entryY=0.5;entryDx=0;entryDy=0;" parent="1" source="EXsFiEfPDIInfz-rMbzo-6" target="EXsFiEfPDIInfz-rMbzo-127" edge="1">
          <mxGeometry relative="1" as="geometry" />
        </mxCell>
        <mxCell id="8MgGUc8JVX6JSV-waokn-23" style="edgeStyle=orthogonalEdgeStyle;rounded=0;orthogonalLoop=1;jettySize=auto;html=1;exitX=0.25;exitY=0;exitDx=0;exitDy=0;" parent="1" source="EXsFiEfPDIInfz-rMbzo-6" target="EXsFiEfPDIInfz-rMbzo-137" edge="1">
          <mxGeometry relative="1" as="geometry" />
        </mxCell>
        <mxCell id="8MgGUc8JVX6JSV-waokn-24" style="edgeStyle=orthogonalEdgeStyle;rounded=0;orthogonalLoop=1;jettySize=auto;html=1;exitX=0.5;exitY=0;exitDx=0;exitDy=0;" parent="1" source="EXsFiEfPDIInfz-rMbzo-6" target="EXsFiEfPDIInfz-rMbzo-105" edge="1">
          <mxGeometry relative="1" as="geometry" />
        </mxCell>
        <mxCell id="8MgGUc8JVX6JSV-waokn-25" style="edgeStyle=orthogonalEdgeStyle;rounded=0;orthogonalLoop=1;jettySize=auto;html=1;exitX=0.75;exitY=0;exitDx=0;exitDy=0;entryX=0;entryY=0.5;entryDx=0;entryDy=0;" parent="1" source="EXsFiEfPDIInfz-rMbzo-6" target="EXsFiEfPDIInfz-rMbzo-72" edge="1">
          <mxGeometry relative="1" as="geometry" />
        </mxCell>
        <mxCell id="8MgGUc8JVX6JSV-waokn-26" style="edgeStyle=orthogonalEdgeStyle;rounded=0;orthogonalLoop=1;jettySize=auto;html=1;exitX=1;exitY=0.25;exitDx=0;exitDy=0;entryX=0;entryY=0.5;entryDx=0;entryDy=0;" parent="1" source="EXsFiEfPDIInfz-rMbzo-6" target="EXsFiEfPDIInfz-rMbzo-71" edge="1">
          <mxGeometry relative="1" as="geometry" />
        </mxCell>
        <mxCell id="8MgGUc8JVX6JSV-waokn-27" style="edgeStyle=orthogonalEdgeStyle;rounded=0;orthogonalLoop=1;jettySize=auto;html=1;exitX=1;exitY=0.75;exitDx=0;exitDy=0;entryX=0;entryY=0.5;entryDx=0;entryDy=0;" parent="1" source="EXsFiEfPDIInfz-rMbzo-6" target="EXsFiEfPDIInfz-rMbzo-73" edge="1">
          <mxGeometry relative="1" as="geometry" />
        </mxCell>
        <mxCell id="8MgGUc8JVX6JSV-waokn-28" style="edgeStyle=orthogonalEdgeStyle;rounded=0;orthogonalLoop=1;jettySize=auto;html=1;exitX=0.75;exitY=1;exitDx=0;exitDy=0;entryX=0;entryY=0.5;entryDx=0;entryDy=0;" parent="1" source="EXsFiEfPDIInfz-rMbzo-6" target="hYuhblJGg8dOX8Agt1h2-26" edge="1">
          <mxGeometry relative="1" as="geometry" />
        </mxCell>
        <mxCell id="8MgGUc8JVX6JSV-waokn-30" style="edgeStyle=orthogonalEdgeStyle;rounded=0;orthogonalLoop=1;jettySize=auto;html=1;exitX=0;exitY=0.25;exitDx=0;exitDy=0;entryX=1;entryY=0.5;entryDx=0;entryDy=0;" parent="1" source="EXsFiEfPDIInfz-rMbzo-6" target="hYuhblJGg8dOX8Agt1h2-16" edge="1">
          <mxGeometry relative="1" as="geometry" />
        </mxCell>
        <mxCell id="EXsFiEfPDIInfz-rMbzo-6" value="AGENT" style="whiteSpace=wrap;html=1;align=center;" parent="1" vertex="1">
          <mxGeometry x="867.5" y="-190" width="225" height="90" as="geometry" />
        </mxCell>
        <mxCell id="8MgGUc8JVX6JSV-waokn-4" style="edgeStyle=orthogonalEdgeStyle;rounded=0;orthogonalLoop=1;jettySize=auto;html=1;exitX=1;exitY=0.25;exitDx=0;exitDy=0;entryX=0;entryY=0.5;entryDx=0;entryDy=0;" parent="1" source="EXsFiEfPDIInfz-rMbzo-11" target="EXsFiEfPDIInfz-rMbzo-70" edge="1">
          <mxGeometry relative="1" as="geometry" />
        </mxCell>
        <mxCell id="8MgGUc8JVX6JSV-waokn-5" style="edgeStyle=orthogonalEdgeStyle;rounded=0;orthogonalLoop=1;jettySize=auto;html=1;exitX=0.75;exitY=1;exitDx=0;exitDy=0;entryX=0.5;entryY=0;entryDx=0;entryDy=0;" parent="1" source="EXsFiEfPDIInfz-rMbzo-11" target="hYuhblJGg8dOX8Agt1h2-28" edge="1">
          <mxGeometry relative="1" as="geometry" />
        </mxCell>
        <mxCell id="8MgGUc8JVX6JSV-waokn-6" style="edgeStyle=orthogonalEdgeStyle;rounded=0;orthogonalLoop=1;jettySize=auto;html=1;exitX=0.25;exitY=1;exitDx=0;exitDy=0;entryX=0.5;entryY=0;entryDx=0;entryDy=0;" parent="1" source="EXsFiEfPDIInfz-rMbzo-11" target="EXsFiEfPDIInfz-rMbzo-102" edge="1">
          <mxGeometry relative="1" as="geometry" />
        </mxCell>
        <mxCell id="8MgGUc8JVX6JSV-waokn-7" style="edgeStyle=orthogonalEdgeStyle;rounded=0;orthogonalLoop=1;jettySize=auto;html=1;exitX=1;exitY=0.75;exitDx=0;exitDy=0;entryX=0;entryY=0.5;entryDx=0;entryDy=0;" parent="1" source="EXsFiEfPDIInfz-rMbzo-11" target="EXsFiEfPDIInfz-rMbzo-96" edge="1">
          <mxGeometry relative="1" as="geometry" />
        </mxCell>
        <mxCell id="8MgGUc8JVX6JSV-waokn-18" style="edgeStyle=orthogonalEdgeStyle;rounded=0;orthogonalLoop=1;jettySize=auto;html=1;exitX=0.75;exitY=0;exitDx=0;exitDy=0;entryX=0;entryY=0.5;entryDx=0;entryDy=0;" parent="1" source="EXsFiEfPDIInfz-rMbzo-11" target="EXsFiEfPDIInfz-rMbzo-81" edge="1">
          <mxGeometry relative="1" as="geometry" />
        </mxCell>
        <mxCell id="t3Xq9TjTE5SwbGCGPuHj-12" style="edgeStyle=orthogonalEdgeStyle;rounded=0;orthogonalLoop=1;jettySize=auto;html=1;exitX=0;exitY=0.5;exitDx=0;exitDy=0;" edge="1" parent="1" source="EXsFiEfPDIInfz-rMbzo-11">
          <mxGeometry relative="1" as="geometry">
            <mxPoint x="770.0000000000005" y="1020" as="targetPoint" />
          </mxGeometry>
        </mxCell>
        <mxCell id="EXsFiEfPDIInfz-rMbzo-11" value="PROPERTY" style="whiteSpace=wrap;html=1;align=center;" parent="1" vertex="1">
          <mxGeometry x="867.5" y="620" width="275" height="110" as="geometry" />
        </mxCell>
        <mxCell id="EXsFiEfPDIInfz-rMbzo-27" value="PHONE" style="ellipse;whiteSpace=wrap;html=1;align=center;" parent="1" vertex="1">
          <mxGeometry x="-40" y="400" width="100" height="70" as="geometry" />
        </mxCell>
        <mxCell id="EXsFiEfPDIInfz-rMbzo-28" value="DOB" style="ellipse;whiteSpace=wrap;html=1;align=center;" parent="1" vertex="1">
          <mxGeometry x="-510" y="155" width="100" height="65" as="geometry" />
        </mxCell>
        <mxCell id="EXsFiEfPDIInfz-rMbzo-32" value="EMAIL" style="ellipse;whiteSpace=wrap;html=1;align=center;" parent="1" vertex="1">
          <mxGeometry x="-280" y="540" width="100" height="80" as="geometry" />
        </mxCell>
        <mxCell id="EXsFiEfPDIInfz-rMbzo-34" style="edgeStyle=orthogonalEdgeStyle;rounded=0;orthogonalLoop=1;jettySize=auto;html=1;entryX=0;entryY=1;entryDx=0;entryDy=0;" parent="1" source="EXsFiEfPDIInfz-rMbzo-33" target="EXsFiEfPDIInfz-rMbzo-44" edge="1">
          <mxGeometry relative="1" as="geometry" />
        </mxCell>
        <mxCell id="EXsFiEfPDIInfz-rMbzo-33" value="PINCODE" style="ellipse;whiteSpace=wrap;html=1;align=center;" parent="1" vertex="1">
          <mxGeometry x="-805" y="360" width="100" height="70" as="geometry" />
        </mxCell>
        <mxCell id="EXsFiEfPDIInfz-rMbzo-38" value="GENDER" style="ellipse;whiteSpace=wrap;html=1;align=center;" parent="1" vertex="1">
          <mxGeometry x="-380" y="495" width="100" height="70" as="geometry" />
        </mxCell>
        <mxCell id="EXsFiEfPDIInfz-rMbzo-61" style="edgeStyle=orthogonalEdgeStyle;rounded=0;orthogonalLoop=1;jettySize=auto;html=1;entryX=1;entryY=0;entryDx=0;entryDy=0;" parent="1" source="EXsFiEfPDIInfz-rMbzo-43" target="EXsFiEfPDIInfz-rMbzo-44" edge="1">
          <mxGeometry relative="1" as="geometry" />
        </mxCell>
        <mxCell id="EXsFiEfPDIInfz-rMbzo-43" value="CITY" style="ellipse;whiteSpace=wrap;html=1;align=center;" parent="1" vertex="1">
          <mxGeometry x="-680" y="170" width="100" height="40" as="geometry" />
        </mxCell>
        <mxCell id="EXsFiEfPDIInfz-rMbzo-44" value="ADDRESS" style="ellipse;whiteSpace=wrap;html=1;align=center;" parent="1" vertex="1">
          <mxGeometry x="-700" y="305" width="100" height="65" as="geometry" />
        </mxCell>
        <mxCell id="EXsFiEfPDIInfz-rMbzo-45" value="C_ID" style="ellipse;whiteSpace=wrap;html=1;align=center;fontStyle=4;" parent="1" vertex="1">
          <mxGeometry x="-360" y="160" width="100" height="40" as="geometry" />
        </mxCell>
        <mxCell id="EXsFiEfPDIInfz-rMbzo-55" style="edgeStyle=orthogonalEdgeStyle;rounded=0;orthogonalLoop=1;jettySize=auto;html=1;entryX=0.5;entryY=1;entryDx=0;entryDy=0;" parent="1" source="EXsFiEfPDIInfz-rMbzo-51" target="EXsFiEfPDIInfz-rMbzo-44" edge="1">
          <mxGeometry relative="1" as="geometry" />
        </mxCell>
        <mxCell id="EXsFiEfPDIInfz-rMbzo-51" value="ADDRESS_LINE_3" style="ellipse;whiteSpace=wrap;html=1;align=center;" parent="1" vertex="1">
          <mxGeometry x="-950" y="420" width="150" height="70" as="geometry" />
        </mxCell>
        <mxCell id="EXsFiEfPDIInfz-rMbzo-54" style="edgeStyle=orthogonalEdgeStyle;rounded=0;orthogonalLoop=1;jettySize=auto;html=1;exitX=1;exitY=0.5;exitDx=0;exitDy=0;entryX=0;entryY=0.5;entryDx=0;entryDy=0;" parent="1" source="EXsFiEfPDIInfz-rMbzo-52" target="EXsFiEfPDIInfz-rMbzo-44" edge="1">
          <mxGeometry relative="1" as="geometry" />
        </mxCell>
        <mxCell id="EXsFiEfPDIInfz-rMbzo-52" value="ADDRESS_LINE_2" style="ellipse;whiteSpace=wrap;html=1;align=center;" parent="1" vertex="1">
          <mxGeometry x="-945" y="310" width="140" height="70" as="geometry" />
        </mxCell>
        <mxCell id="EXsFiEfPDIInfz-rMbzo-56" style="edgeStyle=orthogonalEdgeStyle;rounded=0;orthogonalLoop=1;jettySize=auto;html=1;entryX=0.5;entryY=0;entryDx=0;entryDy=0;" parent="1" source="EXsFiEfPDIInfz-rMbzo-53" target="EXsFiEfPDIInfz-rMbzo-44" edge="1">
          <mxGeometry relative="1" as="geometry" />
        </mxCell>
        <mxCell id="EXsFiEfPDIInfz-rMbzo-53" value="ADDRESS_LINE_1" style="ellipse;whiteSpace=wrap;html=1;align=center;" parent="1" vertex="1">
          <mxGeometry x="-950" y="200" width="150" height="60" as="geometry" />
        </mxCell>
        <mxCell id="EXsFiEfPDIInfz-rMbzo-62" style="edgeStyle=orthogonalEdgeStyle;rounded=0;orthogonalLoop=1;jettySize=auto;html=1;entryX=1;entryY=1;entryDx=0;entryDy=0;" parent="1" source="EXsFiEfPDIInfz-rMbzo-57" target="EXsFiEfPDIInfz-rMbzo-44" edge="1">
          <mxGeometry relative="1" as="geometry" />
        </mxCell>
        <mxCell id="EXsFiEfPDIInfz-rMbzo-57" value="STATE" style="ellipse;whiteSpace=wrap;html=1;align=center;" parent="1" vertex="1">
          <mxGeometry x="-665" y="435" width="100" height="40" as="geometry" />
        </mxCell>
        <mxCell id="EXsFiEfPDIInfz-rMbzo-63" value="LOGIN_DETAILS" style="ellipse;whiteSpace=wrap;html=1;align=center;" parent="1" vertex="1">
          <mxGeometry x="-630" y="620" width="140" height="85" as="geometry" />
        </mxCell>
        <mxCell id="EXsFiEfPDIInfz-rMbzo-69" style="edgeStyle=orthogonalEdgeStyle;rounded=0;orthogonalLoop=1;jettySize=auto;html=1;entryX=1;entryY=1;entryDx=0;entryDy=0;" parent="1" source="EXsFiEfPDIInfz-rMbzo-66" target="EXsFiEfPDIInfz-rMbzo-63" edge="1">
          <mxGeometry relative="1" as="geometry" />
        </mxCell>
        <mxCell id="EXsFiEfPDIInfz-rMbzo-66" value="PASSWORD" style="ellipse;whiteSpace=wrap;html=1;align=center;" parent="1" vertex="1">
          <mxGeometry x="-480" y="786" width="160" height="64" as="geometry" />
        </mxCell>
        <mxCell id="EXsFiEfPDIInfz-rMbzo-68" style="edgeStyle=orthogonalEdgeStyle;rounded=0;orthogonalLoop=1;jettySize=auto;html=1;" parent="1" source="EXsFiEfPDIInfz-rMbzo-67" target="EXsFiEfPDIInfz-rMbzo-63" edge="1">
          <mxGeometry relative="1" as="geometry" />
        </mxCell>
        <mxCell id="EXsFiEfPDIInfz-rMbzo-67" value="USER_ID" style="ellipse;whiteSpace=wrap;html=1;align=center;" parent="1" vertex="1">
          <mxGeometry x="-805" y="770" width="140" height="56" as="geometry" />
        </mxCell>
        <mxCell id="EXsFiEfPDIInfz-rMbzo-70" value="P_AREA" style="ellipse;whiteSpace=wrap;html=1;align=center;" parent="1" vertex="1">
          <mxGeometry x="1565" y="655" width="100" height="40" as="geometry" />
        </mxCell>
        <mxCell id="EXsFiEfPDIInfz-rMbzo-71" value="EMAIL" style="ellipse;whiteSpace=wrap;html=1;align=center;" parent="1" vertex="1">
          <mxGeometry x="1190" y="-300" width="100" height="80" as="geometry" />
        </mxCell>
        <mxCell id="EXsFiEfPDIInfz-rMbzo-72" value="GENDER" style="ellipse;whiteSpace=wrap;html=1;align=center;" parent="1" vertex="1">
          <mxGeometry x="1120" y="-400" width="100" height="70" as="geometry" />
        </mxCell>
        <mxCell id="EXsFiEfPDIInfz-rMbzo-73" value="DOB" style="ellipse;whiteSpace=wrap;html=1;align=center;" parent="1" vertex="1">
          <mxGeometry x="1210" y="-120" width="100" height="65" as="geometry" />
        </mxCell>
        <mxCell id="EXsFiEfPDIInfz-rMbzo-77" style="edgeStyle=orthogonalEdgeStyle;rounded=0;orthogonalLoop=1;jettySize=auto;html=1;entryX=0;entryY=1;entryDx=0;entryDy=0;" parent="1" source="EXsFiEfPDIInfz-rMbzo-78" target="EXsFiEfPDIInfz-rMbzo-81" edge="1">
          <mxGeometry relative="1" as="geometry" />
        </mxCell>
        <mxCell id="EXsFiEfPDIInfz-rMbzo-78" value="PINCODE" style="ellipse;whiteSpace=wrap;html=1;align=center;" parent="1" vertex="1">
          <mxGeometry x="1550" y="530" width="100" height="70" as="geometry" />
        </mxCell>
        <mxCell id="EXsFiEfPDIInfz-rMbzo-79" style="edgeStyle=orthogonalEdgeStyle;rounded=0;orthogonalLoop=1;jettySize=auto;html=1;entryX=1;entryY=0;entryDx=0;entryDy=0;" parent="1" source="EXsFiEfPDIInfz-rMbzo-80" target="EXsFiEfPDIInfz-rMbzo-81" edge="1">
          <mxGeometry relative="1" as="geometry" />
        </mxCell>
        <mxCell id="EXsFiEfPDIInfz-rMbzo-80" value="CITY" style="ellipse;whiteSpace=wrap;html=1;align=center;" parent="1" vertex="1">
          <mxGeometry x="1675" y="340" width="100" height="40" as="geometry" />
        </mxCell>
        <mxCell id="EXsFiEfPDIInfz-rMbzo-81" value="ADDRESS" style="ellipse;whiteSpace=wrap;html=1;align=center;" parent="1" vertex="1">
          <mxGeometry x="1650" y="467.5" width="100" height="65" as="geometry" />
        </mxCell>
        <mxCell id="EXsFiEfPDIInfz-rMbzo-82" style="edgeStyle=orthogonalEdgeStyle;rounded=0;orthogonalLoop=1;jettySize=auto;html=1;entryX=0.5;entryY=1;entryDx=0;entryDy=0;" parent="1" source="EXsFiEfPDIInfz-rMbzo-83" target="EXsFiEfPDIInfz-rMbzo-81" edge="1">
          <mxGeometry relative="1" as="geometry" />
        </mxCell>
        <mxCell id="EXsFiEfPDIInfz-rMbzo-83" value="ADDRESS_LINE_3" style="ellipse;whiteSpace=wrap;html=1;align=center;" parent="1" vertex="1">
          <mxGeometry x="1970" y="560" width="150" height="70" as="geometry" />
        </mxCell>
        <mxCell id="EXsFiEfPDIInfz-rMbzo-94" style="edgeStyle=orthogonalEdgeStyle;rounded=0;orthogonalLoop=1;jettySize=auto;html=1;" parent="1" source="EXsFiEfPDIInfz-rMbzo-85" target="EXsFiEfPDIInfz-rMbzo-81" edge="1">
          <mxGeometry relative="1" as="geometry" />
        </mxCell>
        <mxCell id="EXsFiEfPDIInfz-rMbzo-85" value="ADDRESS_LINE_2" style="ellipse;whiteSpace=wrap;html=1;align=center;" parent="1" vertex="1">
          <mxGeometry x="1855" y="440" width="140" height="70" as="geometry" />
        </mxCell>
        <mxCell id="EXsFiEfPDIInfz-rMbzo-86" style="edgeStyle=orthogonalEdgeStyle;rounded=0;orthogonalLoop=1;jettySize=auto;html=1;entryX=0.5;entryY=0;entryDx=0;entryDy=0;" parent="1" source="EXsFiEfPDIInfz-rMbzo-87" target="EXsFiEfPDIInfz-rMbzo-81" edge="1">
          <mxGeometry relative="1" as="geometry" />
        </mxCell>
        <mxCell id="EXsFiEfPDIInfz-rMbzo-87" value="ADDRESS_LINE_1" style="ellipse;whiteSpace=wrap;html=1;align=center;" parent="1" vertex="1">
          <mxGeometry x="1405" y="370" width="150" height="60" as="geometry" />
        </mxCell>
        <mxCell id="EXsFiEfPDIInfz-rMbzo-88" style="edgeStyle=orthogonalEdgeStyle;rounded=0;orthogonalLoop=1;jettySize=auto;html=1;entryX=1;entryY=1;entryDx=0;entryDy=0;" parent="1" source="EXsFiEfPDIInfz-rMbzo-89" target="EXsFiEfPDIInfz-rMbzo-81" edge="1">
          <mxGeometry relative="1" as="geometry" />
        </mxCell>
        <mxCell id="EXsFiEfPDIInfz-rMbzo-89" value="STATE" style="ellipse;whiteSpace=wrap;html=1;align=center;" parent="1" vertex="1">
          <mxGeometry x="1995" y="510" width="100" height="40" as="geometry" />
        </mxCell>
        <mxCell id="EXsFiEfPDIInfz-rMbzo-96" value="VALUE" style="ellipse;whiteSpace=wrap;html=1;align=center;" parent="1" vertex="1">
          <mxGeometry x="1475" y="865" width="100" height="40" as="geometry" />
        </mxCell>
        <mxCell id="EXsFiEfPDIInfz-rMbzo-100" style="edgeStyle=orthogonalEdgeStyle;rounded=0;orthogonalLoop=1;jettySize=auto;html=1;entryX=0.5;entryY=1;entryDx=0;entryDy=0;" parent="1" source="EXsFiEfPDIInfz-rMbzo-98" target="EXsFiEfPDIInfz-rMbzo-96" edge="1">
          <mxGeometry relative="1" as="geometry" />
        </mxCell>
        <mxCell id="EXsFiEfPDIInfz-rMbzo-98" value="RENT" style="ellipse;whiteSpace=wrap;html=1;align=center;" parent="1" vertex="1">
          <mxGeometry x="1345" y="1025" width="100" height="40" as="geometry" />
        </mxCell>
        <mxCell id="EXsFiEfPDIInfz-rMbzo-101" style="edgeStyle=orthogonalEdgeStyle;rounded=0;orthogonalLoop=1;jettySize=auto;html=1;entryX=1;entryY=0.5;entryDx=0;entryDy=0;" parent="1" source="EXsFiEfPDIInfz-rMbzo-99" target="EXsFiEfPDIInfz-rMbzo-96" edge="1">
          <mxGeometry relative="1" as="geometry" />
        </mxCell>
        <mxCell id="EXsFiEfPDIInfz-rMbzo-99" value="PRICE" style="ellipse;whiteSpace=wrap;html=1;align=center;" parent="1" vertex="1">
          <mxGeometry x="1715" y="1030" width="100" height="40" as="geometry" />
        </mxCell>
        <mxCell id="t3Xq9TjTE5SwbGCGPuHj-29" style="edgeStyle=orthogonalEdgeStyle;rounded=0;orthogonalLoop=1;jettySize=auto;html=1;exitX=0.5;exitY=1;exitDx=0;exitDy=0;entryX=0;entryY=0.5;entryDx=0;entryDy=0;" edge="1" parent="1" source="EXsFiEfPDIInfz-rMbzo-102" target="t3Xq9TjTE5SwbGCGPuHj-28">
          <mxGeometry relative="1" as="geometry" />
        </mxCell>
        <mxCell id="EXsFiEfPDIInfz-rMbzo-102" value="P_ID" style="ellipse;whiteSpace=wrap;html=1;align=center;fontStyle=4;" parent="1" vertex="1">
          <mxGeometry x="905" y="855" width="150" height="60" as="geometry" />
        </mxCell>
        <mxCell id="EXsFiEfPDIInfz-rMbzo-105" value="A_ID" style="ellipse;whiteSpace=wrap;html=1;align=center;fontStyle=4;" parent="1" vertex="1">
          <mxGeometry x="900" y="-450" width="130" height="60" as="geometry" />
        </mxCell>
        <mxCell id="EXsFiEfPDIInfz-rMbzo-123" style="edgeStyle=orthogonalEdgeStyle;rounded=0;orthogonalLoop=1;jettySize=auto;html=1;entryX=0;entryY=1;entryDx=0;entryDy=0;" parent="1" source="EXsFiEfPDIInfz-rMbzo-124" target="EXsFiEfPDIInfz-rMbzo-127" edge="1">
          <mxGeometry relative="1" as="geometry" />
        </mxCell>
        <mxCell id="EXsFiEfPDIInfz-rMbzo-124" value="PINCODE" style="ellipse;whiteSpace=wrap;html=1;align=center;" parent="1" vertex="1">
          <mxGeometry x="495" y="-20" width="100" height="70" as="geometry" />
        </mxCell>
        <mxCell id="EXsFiEfPDIInfz-rMbzo-125" style="edgeStyle=orthogonalEdgeStyle;rounded=0;orthogonalLoop=1;jettySize=auto;html=1;entryX=0.5;entryY=0;entryDx=0;entryDy=0;" parent="1" source="EXsFiEfPDIInfz-rMbzo-126" target="EXsFiEfPDIInfz-rMbzo-127" edge="1">
          <mxGeometry relative="1" as="geometry" />
        </mxCell>
        <mxCell id="EXsFiEfPDIInfz-rMbzo-126" value="CITY" style="ellipse;whiteSpace=wrap;html=1;align=center;" parent="1" vertex="1">
          <mxGeometry x="572.5" y="-230" width="100" height="40" as="geometry" />
        </mxCell>
        <mxCell id="EXsFiEfPDIInfz-rMbzo-127" value="ADDRESS" style="ellipse;whiteSpace=wrap;html=1;align=center;" parent="1" vertex="1">
          <mxGeometry x="600" y="-75" width="100" height="65" as="geometry" />
        </mxCell>
        <mxCell id="EXsFiEfPDIInfz-rMbzo-128" style="edgeStyle=orthogonalEdgeStyle;rounded=0;orthogonalLoop=1;jettySize=auto;html=1;entryX=0.5;entryY=1;entryDx=0;entryDy=0;" parent="1" source="EXsFiEfPDIInfz-rMbzo-129" target="EXsFiEfPDIInfz-rMbzo-127" edge="1">
          <mxGeometry relative="1" as="geometry" />
        </mxCell>
        <mxCell id="EXsFiEfPDIInfz-rMbzo-129" value="ADDRESS_LINE_3" style="ellipse;whiteSpace=wrap;html=1;align=center;" parent="1" vertex="1">
          <mxGeometry x="350" y="40" width="150" height="70" as="geometry" />
        </mxCell>
        <mxCell id="EXsFiEfPDIInfz-rMbzo-130" style="edgeStyle=orthogonalEdgeStyle;rounded=0;orthogonalLoop=1;jettySize=auto;html=1;exitX=1;exitY=0.5;exitDx=0;exitDy=0;entryX=0;entryY=0.5;entryDx=0;entryDy=0;" parent="1" source="EXsFiEfPDIInfz-rMbzo-131" target="EXsFiEfPDIInfz-rMbzo-127" edge="1">
          <mxGeometry relative="1" as="geometry" />
        </mxCell>
        <mxCell id="EXsFiEfPDIInfz-rMbzo-131" value="ADDRESS_LINE_2" style="ellipse;whiteSpace=wrap;html=1;align=center;" parent="1" vertex="1">
          <mxGeometry x="355" y="-70" width="140" height="70" as="geometry" />
        </mxCell>
        <mxCell id="EXsFiEfPDIInfz-rMbzo-132" style="edgeStyle=orthogonalEdgeStyle;rounded=0;orthogonalLoop=1;jettySize=auto;html=1;entryX=0;entryY=0;entryDx=0;entryDy=0;" parent="1" source="EXsFiEfPDIInfz-rMbzo-133" target="EXsFiEfPDIInfz-rMbzo-127" edge="1">
          <mxGeometry relative="1" as="geometry" />
        </mxCell>
        <mxCell id="EXsFiEfPDIInfz-rMbzo-133" value="ADDRESS_LINE_1" style="ellipse;whiteSpace=wrap;html=1;align=center;" parent="1" vertex="1">
          <mxGeometry x="350" y="-180" width="150" height="60" as="geometry" />
        </mxCell>
        <mxCell id="EXsFiEfPDIInfz-rMbzo-134" style="edgeStyle=orthogonalEdgeStyle;rounded=0;orthogonalLoop=1;jettySize=auto;html=1;entryX=1;entryY=1;entryDx=0;entryDy=0;" parent="1" source="EXsFiEfPDIInfz-rMbzo-135" target="EXsFiEfPDIInfz-rMbzo-127" edge="1">
          <mxGeometry relative="1" as="geometry" />
        </mxCell>
        <mxCell id="EXsFiEfPDIInfz-rMbzo-135" value="STATE" style="ellipse;whiteSpace=wrap;html=1;align=center;" parent="1" vertex="1">
          <mxGeometry x="690" y="30" width="100" height="40" as="geometry" />
        </mxCell>
        <mxCell id="EXsFiEfPDIInfz-rMbzo-137" value="LOGIN_DETAILS" style="ellipse;whiteSpace=wrap;html=1;align=center;" parent="1" vertex="1">
          <mxGeometry x="730" y="-580" width="140" height="85" as="geometry" />
        </mxCell>
        <mxCell id="EXsFiEfPDIInfz-rMbzo-138" style="edgeStyle=orthogonalEdgeStyle;rounded=0;orthogonalLoop=1;jettySize=auto;html=1;entryX=1;entryY=0.5;entryDx=0;entryDy=0;" parent="1" source="EXsFiEfPDIInfz-rMbzo-139" target="EXsFiEfPDIInfz-rMbzo-137" edge="1">
          <mxGeometry relative="1" as="geometry" />
        </mxCell>
        <mxCell id="EXsFiEfPDIInfz-rMbzo-139" value="PASSWORD" style="ellipse;whiteSpace=wrap;html=1;align=center;" parent="1" vertex="1">
          <mxGeometry x="960" y="-520" width="160" height="64" as="geometry" />
        </mxCell>
        <mxCell id="EXsFiEfPDIInfz-rMbzo-140" style="edgeStyle=orthogonalEdgeStyle;rounded=0;orthogonalLoop=1;jettySize=auto;html=1;" parent="1" source="EXsFiEfPDIInfz-rMbzo-141" target="EXsFiEfPDIInfz-rMbzo-137" edge="1">
          <mxGeometry relative="1" as="geometry" />
        </mxCell>
        <mxCell id="EXsFiEfPDIInfz-rMbzo-141" value="USER_ID" style="ellipse;whiteSpace=wrap;html=1;align=center;" parent="1" vertex="1">
          <mxGeometry x="730" y="-720" width="140" height="56" as="geometry" />
        </mxCell>
        <mxCell id="hYuhblJGg8dOX8Agt1h2-1" value="NAME" style="ellipse;whiteSpace=wrap;html=1;align=center;" parent="1" vertex="1">
          <mxGeometry x="-105" y="600" width="100" height="40" as="geometry" />
        </mxCell>
        <mxCell id="hYuhblJGg8dOX8Agt1h2-6" style="edgeStyle=orthogonalEdgeStyle;rounded=0;orthogonalLoop=1;jettySize=auto;html=1;entryX=0;entryY=0.5;entryDx=0;entryDy=0;" parent="1" source="hYuhblJGg8dOX8Agt1h2-3" target="hYuhblJGg8dOX8Agt1h2-1" edge="1">
          <mxGeometry relative="1" as="geometry" />
        </mxCell>
        <mxCell id="hYuhblJGg8dOX8Agt1h2-3" value="FIRST_NAME" style="ellipse;whiteSpace=wrap;html=1;align=center;" parent="1" vertex="1">
          <mxGeometry x="-280" y="705" width="100" height="40" as="geometry" />
        </mxCell>
        <mxCell id="hYuhblJGg8dOX8Agt1h2-8" style="edgeStyle=orthogonalEdgeStyle;rounded=0;orthogonalLoop=1;jettySize=auto;html=1;entryX=1;entryY=0.5;entryDx=0;entryDy=0;" parent="1" source="hYuhblJGg8dOX8Agt1h2-4" target="hYuhblJGg8dOX8Agt1h2-1" edge="1">
          <mxGeometry relative="1" as="geometry" />
        </mxCell>
        <mxCell id="hYuhblJGg8dOX8Agt1h2-4" value="LAST_NAME" style="ellipse;whiteSpace=wrap;html=1;align=center;" parent="1" vertex="1">
          <mxGeometry x="-5" y="740" width="100" height="40" as="geometry" />
        </mxCell>
        <mxCell id="hYuhblJGg8dOX8Agt1h2-7" style="edgeStyle=orthogonalEdgeStyle;rounded=0;orthogonalLoop=1;jettySize=auto;html=1;" parent="1" source="hYuhblJGg8dOX8Agt1h2-5" target="hYuhblJGg8dOX8Agt1h2-1" edge="1">
          <mxGeometry relative="1" as="geometry" />
        </mxCell>
        <mxCell id="hYuhblJGg8dOX8Agt1h2-5" value="MIDDLE_NAME" style="ellipse;whiteSpace=wrap;html=1;align=center;" parent="1" vertex="1">
          <mxGeometry x="-140" y="745" width="100" height="40" as="geometry" />
        </mxCell>
        <mxCell id="hYuhblJGg8dOX8Agt1h2-16" value="NAME" style="ellipse;whiteSpace=wrap;html=1;align=center;" parent="1" vertex="1">
          <mxGeometry x="610" y="-400" width="100" height="40" as="geometry" />
        </mxCell>
        <mxCell id="hYuhblJGg8dOX8Agt1h2-17" style="edgeStyle=orthogonalEdgeStyle;rounded=0;orthogonalLoop=1;jettySize=auto;html=1;entryX=0;entryY=0.5;entryDx=0;entryDy=0;" parent="1" source="hYuhblJGg8dOX8Agt1h2-18" target="hYuhblJGg8dOX8Agt1h2-16" edge="1">
          <mxGeometry relative="1" as="geometry" />
        </mxCell>
        <mxCell id="hYuhblJGg8dOX8Agt1h2-18" value="FIRST_NAME" style="ellipse;whiteSpace=wrap;html=1;align=center;" parent="1" vertex="1">
          <mxGeometry x="240" y="-500" width="100" height="40" as="geometry" />
        </mxCell>
        <mxCell id="hYuhblJGg8dOX8Agt1h2-19" style="edgeStyle=orthogonalEdgeStyle;rounded=0;orthogonalLoop=1;jettySize=auto;html=1;entryX=0.5;entryY=0;entryDx=0;entryDy=0;" parent="1" source="hYuhblJGg8dOX8Agt1h2-20" target="hYuhblJGg8dOX8Agt1h2-16" edge="1">
          <mxGeometry relative="1" as="geometry" />
        </mxCell>
        <mxCell id="hYuhblJGg8dOX8Agt1h2-20" value="LAST_NAME" style="ellipse;whiteSpace=wrap;html=1;align=center;" parent="1" vertex="1">
          <mxGeometry x="360" y="-610" width="100" height="40" as="geometry" />
        </mxCell>
        <mxCell id="hYuhblJGg8dOX8Agt1h2-21" style="edgeStyle=orthogonalEdgeStyle;rounded=0;orthogonalLoop=1;jettySize=auto;html=1;" parent="1" source="hYuhblJGg8dOX8Agt1h2-22" target="hYuhblJGg8dOX8Agt1h2-16" edge="1">
          <mxGeometry relative="1" as="geometry" />
        </mxCell>
        <mxCell id="hYuhblJGg8dOX8Agt1h2-22" value="MIDDLE_NAME" style="ellipse;whiteSpace=wrap;html=1;align=center;" parent="1" vertex="1">
          <mxGeometry x="255" y="-350" width="100" height="40" as="geometry" />
        </mxCell>
        <mxCell id="hYuhblJGg8dOX8Agt1h2-26" value="PHONE" style="ellipse;whiteSpace=wrap;html=1;align=center;" parent="1" vertex="1">
          <mxGeometry x="1160" y="-20" width="100" height="70" as="geometry" />
        </mxCell>
        <mxCell id="hYuhblJGg8dOX8Agt1h2-28" value="WHETHER_EMPTY" style="ellipse;whiteSpace=wrap;html=1;align=center;" parent="1" vertex="1">
          <mxGeometry x="1255" y="920" width="120" height="50" as="geometry" />
        </mxCell>
        <mxCell id="8MgGUc8JVX6JSV-waokn-32" style="edgeStyle=orthogonalEdgeStyle;rounded=0;orthogonalLoop=1;jettySize=auto;html=1;entryX=0.5;entryY=1;entryDx=0;entryDy=0;" parent="1" source="8MgGUc8JVX6JSV-waokn-31" target="EXsFiEfPDIInfz-rMbzo-6" edge="1">
          <mxGeometry relative="1" as="geometry" />
        </mxCell>
        <mxCell id="8MgGUc8JVX6JSV-waokn-31" value="AGENT_ASSIGNED" style="shape=rhombus;perimeter=rhombusPerimeter;whiteSpace=wrap;html=1;align=center;" parent="1" vertex="1">
          <mxGeometry x="890" y="200" width="160" height="80" as="geometry" />
        </mxCell>
        <mxCell id="8MgGUc8JVX6JSV-waokn-35" value="" style="endArrow=none;html=1;rounded=0;entryX=0.5;entryY=1;entryDx=0;entryDy=0;exitX=0.372;exitY=0.012;exitDx=0;exitDy=0;exitPerimeter=0;" parent="1" source="EXsFiEfPDIInfz-rMbzo-11" target="8MgGUc8JVX6JSV-waokn-31" edge="1">
          <mxGeometry relative="1" as="geometry">
            <mxPoint x="970" y="610" as="sourcePoint" />
            <mxPoint x="980" y="290" as="targetPoint" />
          </mxGeometry>
        </mxCell>
        <mxCell id="8MgGUc8JVX6JSV-waokn-37" style="edgeStyle=orthogonalEdgeStyle;rounded=0;orthogonalLoop=1;jettySize=auto;html=1;exitX=1;exitY=0.5;exitDx=0;exitDy=0;entryX=0;entryY=1;entryDx=0;entryDy=0;" parent="1" source="8MgGUc8JVX6JSV-waokn-36" target="EXsFiEfPDIInfz-rMbzo-6" edge="1">
          <mxGeometry relative="1" as="geometry" />
        </mxCell>
        <mxCell id="8MgGUc8JVX6JSV-waokn-36" value="CURRENT_CLIENT" style="shape=rhombus;perimeter=rhombusPerimeter;whiteSpace=wrap;html=1;align=center;" parent="1" vertex="1">
          <mxGeometry x="380" y="270" width="240" height="120" as="geometry" />
        </mxCell>
        <mxCell id="t3Xq9TjTE5SwbGCGPuHj-4" style="edgeStyle=orthogonalEdgeStyle;rounded=0;orthogonalLoop=1;jettySize=auto;html=1;exitX=1;exitY=0.25;exitDx=0;exitDy=0;" edge="1" parent="1" source="t3Xq9TjTE5SwbGCGPuHj-1" target="t3Xq9TjTE5SwbGCGPuHj-5">
          <mxGeometry relative="1" as="geometry">
            <mxPoint x="1400" y="1350.3846153846152" as="targetPoint" />
          </mxGeometry>
        </mxCell>
        <mxCell id="t3Xq9TjTE5SwbGCGPuHj-8" style="edgeStyle=orthogonalEdgeStyle;rounded=0;orthogonalLoop=1;jettySize=auto;html=1;exitX=0.75;exitY=1;exitDx=0;exitDy=0;" edge="1" parent="1" source="t3Xq9TjTE5SwbGCGPuHj-1">
          <mxGeometry relative="1" as="geometry">
            <mxPoint x="1240.0000000000005" y="1540" as="targetPoint" />
          </mxGeometry>
        </mxCell>
        <mxCell id="t3Xq9TjTE5SwbGCGPuHj-10" style="edgeStyle=orthogonalEdgeStyle;rounded=0;orthogonalLoop=1;jettySize=auto;html=1;exitX=0.5;exitY=1;exitDx=0;exitDy=0;" edge="1" parent="1" source="t3Xq9TjTE5SwbGCGPuHj-1">
          <mxGeometry relative="1" as="geometry">
            <mxPoint x="1040.0000000000005" y="1590" as="targetPoint" />
          </mxGeometry>
        </mxCell>
        <mxCell id="t3Xq9TjTE5SwbGCGPuHj-15" style="edgeStyle=orthogonalEdgeStyle;rounded=0;orthogonalLoop=1;jettySize=auto;html=1;exitX=1;exitY=0.5;exitDx=0;exitDy=0;" edge="1" parent="1" source="t3Xq9TjTE5SwbGCGPuHj-1">
          <mxGeometry relative="1" as="geometry">
            <mxPoint x="1820" y="1370.3846153846152" as="targetPoint" />
          </mxGeometry>
        </mxCell>
        <mxCell id="t3Xq9TjTE5SwbGCGPuHj-1" value="OWNER" style="rounded=0;whiteSpace=wrap;html=1;" vertex="1" parent="1">
          <mxGeometry x="940" y="1310.38" width="300" height="120" as="geometry" />
        </mxCell>
        <mxCell id="t3Xq9TjTE5SwbGCGPuHj-5" value="OWNER_ID" style="ellipse;whiteSpace=wrap;html=1;" vertex="1" parent="1">
          <mxGeometry x="1325" y="1260.0046153846151" width="120" height="80" as="geometry" />
        </mxCell>
        <mxCell id="t3Xq9TjTE5SwbGCGPuHj-9" value="&lt;div&gt;CONTACT NO&lt;/div&gt;&lt;div&gt;&lt;br&gt;&lt;/div&gt;" style="ellipse;whiteSpace=wrap;html=1;" vertex="1" parent="1">
          <mxGeometry x="1200" y="1520" width="80" height="80" as="geometry" />
        </mxCell>
        <mxCell id="t3Xq9TjTE5SwbGCGPuHj-11" value="EMAIL ID" style="ellipse;whiteSpace=wrap;html=1;" vertex="1" parent="1">
          <mxGeometry x="990" y="1560" width="80" height="80" as="geometry" />
        </mxCell>
        <mxCell id="t3Xq9TjTE5SwbGCGPuHj-14" style="edgeStyle=orthogonalEdgeStyle;rounded=0;orthogonalLoop=1;jettySize=auto;html=1;exitX=0.5;exitY=1;exitDx=0;exitDy=0;entryX=0;entryY=0.5;entryDx=0;entryDy=0;" edge="1" parent="1" source="t3Xq9TjTE5SwbGCGPuHj-13" target="t3Xq9TjTE5SwbGCGPuHj-1">
          <mxGeometry relative="1" as="geometry" />
        </mxCell>
        <mxCell id="t3Xq9TjTE5SwbGCGPuHj-13" value="PROPERTY_ID" style="rhombus;whiteSpace=wrap;html=1;" vertex="1" parent="1">
          <mxGeometry x="710" y="1020" width="120" height="100" as="geometry" />
        </mxCell>
        <mxCell id="t3Xq9TjTE5SwbGCGPuHj-23" style="edgeStyle=orthogonalEdgeStyle;rounded=0;orthogonalLoop=1;jettySize=auto;html=1;exitX=0.75;exitY=0;exitDx=0;exitDy=0;" edge="1" parent="1" source="t3Xq9TjTE5SwbGCGPuHj-19">
          <mxGeometry relative="1" as="geometry">
            <mxPoint x="2060" y="1190" as="targetPoint" />
          </mxGeometry>
        </mxCell>
        <mxCell id="t3Xq9TjTE5SwbGCGPuHj-19" value="STATUS" style="rounded=0;whiteSpace=wrap;html=1;" vertex="1" parent="1">
          <mxGeometry x="1815" y="1315.38" width="230" height="110" as="geometry" />
        </mxCell>
        <mxCell id="t3Xq9TjTE5SwbGCGPuHj-25" value="RENT OR SOLD" style="ellipse;whiteSpace=wrap;html=1;" vertex="1" parent="1">
          <mxGeometry x="2020" y="1110" width="80" height="80" as="geometry" />
        </mxCell>
        <mxCell id="t3Xq9TjTE5SwbGCGPuHj-30" style="edgeStyle=orthogonalEdgeStyle;rounded=0;orthogonalLoop=1;jettySize=auto;html=1;exitX=1;exitY=0.5;exitDx=0;exitDy=0;entryX=0;entryY=0.25;entryDx=0;entryDy=0;" edge="1" parent="1" source="t3Xq9TjTE5SwbGCGPuHj-28" target="t3Xq9TjTE5SwbGCGPuHj-19">
          <mxGeometry relative="1" as="geometry" />
        </mxCell>
        <mxCell id="t3Xq9TjTE5SwbGCGPuHj-28" value="PROPERTY ID" style="rhombus;whiteSpace=wrap;html=1;" vertex="1" parent="1">
          <mxGeometry x="1190" y="1060" width="170" height="100" as="geometry" />
        </mxCell>
        <mxCell id="t3Xq9TjTE5SwbGCGPuHj-32" value="RENT OR BUY" style="ellipse;whiteSpace=wrap;html=1;" vertex="1" parent="1">
          <mxGeometry x="-230" y="50" width="120" height="80" as="geometry" />
        </mxCell>
      </root>
    </mxGraphModel>
  </diagram>
</mxfile>
